<?xml version="1.0" encoding="UTF-8" standalone="no"?>
<svg
   xmlns:dc="http://purl.org/dc/elements/1.1/"
   xmlns:cc="http://creativecommons.org/ns#"
   xmlns:rdf="http://www.w3.org/1999/02/22-rdf-syntax-ns#"
   xmlns:svg="http://www.w3.org/2000/svg"
   xmlns="http://www.w3.org/2000/svg"
   xmlns:sodipodi="http://sodipodi.sourceforge.net/DTD/sodipodi-0.dtd"
   xmlns:inkscape="http://www.inkscape.org/namespaces/inkscape"
   viewBox="0 0 38 38"
   width="76"
   height="76"
   version="1.1"
   id="svg966"
   sodipodi:docname="icons8-facebook.svg"
   inkscape:version="1.0.2 (e86c8708, 2021-01-15)">
  <metadata
     id="metadata972">
    <rdf:RDF>
      <cc:Work
         rdf:about="">
        <dc:format>image/svg+xml</dc:format>
        <dc:type
           rdf:resource="http://purl.org/dc/dcmitype/StillImage" />
        <dc:title></dc:title>
      </cc:Work>
    </rdf:RDF>
  </metadata>
  <defs
     id="defs970" />
  <sodipodi:namedview
     pagecolor="#ffffff"
     bordercolor="#666666"
     borderopacity="1"
     objecttolerance="10"
     gridtolerance="10"
     guidetolerance="10"
     inkscape:pageopacity="0"
     inkscape:pageshadow="2"
     inkscape:window-width="1792"
     inkscape:window-height="1003"
     id="namedview968"
     showgrid="false"
     fit-margin-top="0"
     fit-margin-left="0"
     fit-margin-right="0"
     fit-margin-bottom="0"
     inkscape:zoom="7.84375"
     inkscape:cx="38"
     inkscape:cy="38"
     inkscape:window-x="0"
     inkscape:window-y="25"
     inkscape:window-maximized="1"
     inkscape:current-layer="svg966" />
  <path
     fill="#039be5"
     d="M 19,0 A 19,19 0 1 0 19,38 19,19 0 1 0 19,0 Z"
     id="path962" />
  <path
     fill="#ffffff"
     d="m 21.572,24.036 h 4.917 l 0.772,-4.995 h -5.69 v -2.73 c 0,-2.075 0.678,-3.915 2.619,-3.915 h 3.119 V 8.037 C 26.761,7.963 25.602,7.801 23.412,7.801 c -4.573,0 -7.254,2.415 -7.254,7.917 v 3.323 h -4.701 v 4.995 h 4.701 V 37.765 C 17.089,37.905 18.032,38 19,38 c 0.875,0 1.729,-0.08 2.572,-0.194 z"
     id="path964" />
</svg>
