<?xml version="1.0" encoding="UTF-8" standalone="no"?>
<!-- Created with Inkscape (http://www.inkscape.org/) -->

<svg
   width="19.049999mm"
   height="19.049999mm"
   viewBox="0 0 19.049999 19.049999"
   version="1.1"
   id="svg835"
   inkscape:version="1.1.2 (b8e25be833, 2022-02-05)"
   sodipodi:docname="icons8-line.svg"
   xmlns:inkscape="http://www.inkscape.org/namespaces/inkscape"
   xmlns:sodipodi="http://sodipodi.sourceforge.net/DTD/sodipodi-0.dtd"
   xmlns="http://www.w3.org/2000/svg"
   xmlns:svg="http://www.w3.org/2000/svg">
  <sodipodi:namedview
     id="namedview837"
     pagecolor="#505050"
     bordercolor="#eeeeee"
     borderopacity="1"
     inkscape:pageshadow="0"
     inkscape:pageopacity="0"
     inkscape:pagecheckerboard="0"
     inkscape:document-units="mm"
     showgrid="false"
     fit-margin-top="0"
     fit-margin-left="0"
     fit-margin-right="0"
     fit-margin-bottom="0"
     inkscape:zoom="0.80087682"
     inkscape:cx="-542.53037"
     inkscape:cy="69.923362"
     inkscape:window-width="3840"
     inkscape:window-height="2066"
     inkscape:window-x="-11"
     inkscape:window-y="-11"
     inkscape:window-maximized="1"
     inkscape:current-layer="layer1" />
  <defs
     id="defs832" />
  <g
     inkscape:label="Layer 1"
     inkscape:groupmode="layer"
     id="layer1"
     transform="translate(-230.65186,-129.88991)">
    <path
       fill="#00c300"
       d="m 234.09144,148.93991 h 12.17084 c 1.89971,0 3.43958,-1.53987 3.43958,-3.43958 v -12.17084 c 0,-1.8997 -1.53987,-3.43958 -3.43958,-3.43958 h -12.17084 c -1.8997,0 -3.43958,1.53988 -3.43958,3.43958 v 12.17084 c 0,1.89971 1.53988,3.43958 3.43958,3.43958 z"
       id="path2"
       style="stroke-width:0.529167" />
    <path
       fill="#ffffff"
       d="m 247.11582,138.57724 c 0,-3.10356 -3.1115,-5.62875 -6.93578,-5.62875 -3.82429,0 -6.93632,2.52519 -6.93632,5.62875 0,2.78236 2.4675,5.11281 5.80072,5.5536 0.22596,0.0487 0.5334,0.14923 0.61119,0.34185 0.0699,0.17515 0.0455,0.44979 0.0222,0.62706 0,0 -0.081,0.48948 -0.099,0.59372 -0.0302,0.17516 -0.13917,0.6858 0.60061,0.37412 0.7403,-0.31168 3.99415,-2.35214 5.44935,-4.02748 h -5.2e-4 c 1.00594,-1.10173 1.48748,-2.22092 1.48748,-3.46287 z m -9.65094,1.84679 h -1.37795 c -0.20055,0 -0.36354,-0.16298 -0.36354,-0.36407 v -2.75642 c 0,-0.20056 0.16299,-0.36354 0.36354,-0.36354 0.20056,0 0.36354,0.16298 0.36354,0.36354 v 2.39236 h 1.01441 c 0.20056,0 0.36354,0.16298 0.36354,0.36354 0,0.20108 -0.16298,0.36459 -0.36354,0.36459 z m 1.42505,-0.36407 c 0,0.20056 -0.16299,0.36407 -0.36354,0.36407 -0.20055,0 -0.36354,-0.16298 -0.36354,-0.36407 v -2.75642 c 0,-0.20056 0.16299,-0.36354 0.36354,-0.36354 0.20055,0 0.36354,0.16298 0.36354,0.36354 z m 3.31787,0 c 0,0.15717 -0.0995,0.29581 -0.24871,0.34502 -0.0376,0.0127 -0.0767,0.019 -0.11535,0.019 -0.11378,0 -0.22225,-0.0545 -0.29052,-0.14552 l -1.41234,-1.92352 v 1.70497 c 0,0.20056 -0.16299,0.36407 -0.36407,0.36407 -0.20055,0 -0.36407,-0.16298 -0.36407,-0.36407 v -2.75642 c 0,-0.15664 0.10002,-0.29528 0.24871,-0.34502 0.0376,-0.0127 0.0762,-0.0185 0.11536,-0.0185 0.11324,0 0.22225,0.0545 0.29051,0.14552 l 1.41288,1.92352 v -1.7055 c 0,-0.20056 0.16351,-0.36354 0.36406,-0.36354 0.20056,0 0.36354,0.16298 0.36354,0.36354 z m 2.22991,-1.74201 c 0.20055,0 0.36407,0.16298 0.36407,0.36406 0,0.20056 -0.16299,0.36354 -0.36407,0.36354 h -1.01441 v 0.65088 h 1.01441 c 0.20055,0 0.36407,0.16298 0.36407,0.36353 0,0.20056 -0.16352,0.36407 -0.36407,0.36407 h -1.37795 c -0.20002,0 -0.36354,-0.16298 -0.36354,-0.36407 v -1.37742 c 0,-5.3e-4 0,-5.3e-4 0,-5.3e-4 0,0 0,-5.2e-4 0,-5.2e-4 v -1.37637 c 0,-5.3e-4 0,-5.3e-4 0,-10e-4 0,-0.20055 0.16299,-0.36353 0.36354,-0.36353 h 1.37795 c 0.20055,0 0.36407,0.16298 0.36407,0.36353 0,0.20056 -0.16299,0.36354 -0.36407,0.36354 h -1.01441 v 0.65088 h 1.01441 z"
       id="path4"
       style="stroke-width:0.529167" />
  </g>
</svg>
