<?xml version="1.0" encoding="UTF-8" standalone="no"?>
<svg
   xmlns:dc="http://purl.org/dc/elements/1.1/"
   xmlns:cc="http://creativecommons.org/ns#"
   xmlns:rdf="http://www.w3.org/1999/02/22-rdf-syntax-ns#"
   xmlns:svg="http://www.w3.org/2000/svg"
   xmlns="http://www.w3.org/2000/svg"
   xmlns:sodipodi="http://sodipodi.sourceforge.net/DTD/sodipodi-0.dtd"
   xmlns:inkscape="http://www.inkscape.org/namespaces/inkscape"
   width="19.84375mm"
   height="16.933519mm"
   viewBox="0 0 19.84375 16.933519"
   version="1.1"
   id="svg8"
   inkscape:version="1.0.2 (e86c8708, 2021-01-15)"
   sodipodi:docname="icon-blog.svg">
  <defs
     id="defs2" />
  <sodipodi:namedview
     id="base"
     pagecolor="#ffffff"
     bordercolor="#666666"
     borderopacity="1.0"
     inkscape:pageopacity="0.0"
     inkscape:pageshadow="2"
     inkscape:zoom="3.8072834"
     inkscape:cx="109.15052"
     inkscape:cy="49.519227"
     inkscape:document-units="mm"
     inkscape:current-layer="layer1"
     inkscape:document-rotation="0"
     showgrid="false"
     fit-margin-top="0"
     fit-margin-left="0"
     fit-margin-right="0"
     fit-margin-bottom="0"
     inkscape:window-width="1663"
     inkscape:window-height="943"
     inkscape:window-x="0"
     inkscape:window-y="25"
     inkscape:window-maximized="0" />
  <metadata
     id="metadata5">
    <rdf:RDF>
      <cc:Work
         rdf:about="">
        <dc:format>image/svg+xml</dc:format>
        <dc:type
           rdf:resource="http://purl.org/dc/dcmitype/StillImage" />
        <dc:title></dc:title>
      </cc:Work>
    </rdf:RDF>
  </metadata>
  <g
     inkscape:label="レイヤー 1"
     inkscape:groupmode="layer"
     id="layer1"
     transform="translate(-292.16853,-52.896345)">
    <path
       style="fill:#000000;stroke-width:0.264583"
       d="m 294.18509,69.366843 c -0.4965,-0.41376 -0.56295,-0.785517 -0.62462,-3.494265 -0.0681,-2.991391 -0.0777,-3.033292 -0.73048,-3.186929 -0.58289,-0.137194 -0.66146,-0.295251 -0.66146,-1.330757 0,-0.930843 0.10123,-1.194568 0.48705,-1.26887 0.26788,-0.05159 0.95249,-0.559234 1.52136,-1.128103 1.01881,-1.018808 1.0343,-1.064037 1.0343,-3.01868 0,-3.121915 -0.17907,-3.042709 6.87917,-3.042709 7.05824,0 6.87917,-0.07921 6.87917,3.042709 0,1.954643 0.0155,1.999872 1.0343,3.01868 0.56887,0.568869 1.25348,1.076515 1.52136,1.128103 0.38582,0.0743 0.48704,0.338027 0.48704,1.26887 0,1.035608 -0.0785,1.193504 -0.66145,1.330373 -0.64959,0.152514 -0.66384,0.211294 -0.79375,3.27528 -0.11417,2.692546 -0.20266,3.171308 -0.64589,3.494649 -0.41369,0.301791 -1.93907,0.37467 -7.84204,0.37467 -6.59143,0 -7.38433,-0.04657 -7.88406,-0.463021 z m 5.51352,-1.773227 c 0.70286,-0.846888 -0.32947,-2.147828 -1.24622,-1.570498 -0.91608,0.576901 -0.58971,1.954662 0.46302,1.954662 0.25541,0 0.60785,-0.172874 0.7832,-0.384164 z m 3.175,0 c 0.70286,-0.846888 -0.32947,-2.147828 -1.24622,-1.570498 -0.91608,0.576901 -0.58971,1.954662 0.46302,1.954662 0.25541,0 0.60785,-0.172874 0.7832,-0.384164 z m 3.175,0 c 0.70286,-0.846888 -0.32947,-2.147828 -1.24622,-1.570498 -0.91608,0.576901 -0.58971,1.954662 0.46302,1.954662 0.25541,0 0.60785,-0.172874 0.7832,-0.384164 z m -7.9375,-3.175 c 0.70286,-0.846888 -0.32947,-2.147828 -1.24622,-1.570498 -0.58783,0.370189 -0.7315,1.074887 -0.32018,1.570498 0.40868,0.492427 1.15772,0.492427 1.5664,0 z m 3.175,0 c 0.70286,-0.846888 -0.32947,-2.147828 -1.24622,-1.570498 -0.58783,0.370189 -0.7315,1.074887 -0.32018,1.570498 0.40868,0.492427 1.15772,0.492427 1.5664,0 z m 3.175,0 c 0.70286,-0.846888 -0.32947,-2.147828 -1.24622,-1.570498 -0.58783,0.370189 -0.7315,1.074887 -0.32018,1.570498 0.40868,0.492427 1.15772,0.492427 1.5664,0 z m 3.175,0 c 0.70286,-0.846888 -0.32947,-2.147828 -1.24622,-1.570498 -0.58783,0.370189 -0.7315,1.074887 -0.32018,1.570498 0.40868,0.492427 1.15772,0.492427 1.5664,0 z m -1.47442,-3.386148 c 0.42455,-0.674049 -0.10639,-1.370973 -1.1214,-1.471972 -0.61158,-0.06086 -0.83321,-0.215994 -0.83321,-0.583224 0,-0.433556 0.2383,-0.510753 1.78593,-0.578549 l 1.78594,-0.07823 v -2.116667 -2.116667 h -5.68854 -5.68854 v 2.116667 2.116667 l 1.78594,0.07823 c 1.56894,0.06873 1.78593,0.141061 1.78593,0.595313 0,0.389934 -0.18216,0.517078 -0.74083,0.517078 -0.82834,0 -1.37583,0.421148 -1.37583,1.058333 0,0.948625 0.54437,1.074204 4.33089,0.999087 3.1697,-0.06288 3.72267,-0.137478 3.97372,-0.536066 z"
       id="path881" />
  </g>
</svg>
