<?xml version="1.0" encoding="UTF-8" standalone="no"?>
<!-- Created with Inkscape (http://www.inkscape.org/) -->

<svg
   width="12.17083mm"
   height="12.17083mm"
   viewBox="0 0 12.17083 12.17083"
   version="1.1"
   id="svg932"
   inkscape:version="1.1.2 (b8e25be833, 2022-02-05)"
   sodipodi:docname="icons8-insta.svg"
   xmlns:inkscape="http://www.inkscape.org/namespaces/inkscape"
   xmlns:sodipodi="http://sodipodi.sourceforge.net/DTD/sodipodi-0.dtd"
   xmlns="http://www.w3.org/2000/svg"
   xmlns:svg="http://www.w3.org/2000/svg">
  <sodipodi:namedview
     id="namedview934"
     pagecolor="#505050"
     bordercolor="#eeeeee"
     borderopacity="1"
     inkscape:pageshadow="0"
     inkscape:pageopacity="0"
     inkscape:pagecheckerboard="0"
     inkscape:document-units="mm"
     showgrid="false"
     fit-margin-top="0"
     fit-margin-left="0"
     fit-margin-right="0"
     fit-margin-bottom="0"
     inkscape:zoom="0.80087682"
     inkscape:cx="-628.68594"
     inkscape:cy="-392.07028"
     inkscape:window-width="3840"
     inkscape:window-height="2066"
     inkscape:window-x="-11"
     inkscape:window-y="-11"
     inkscape:window-maximized="1"
     inkscape:current-layer="layer1" />
  <defs
     id="defs929">
    <radialGradient
       id="TGwjmZMm2W~B4yrgup6jdb"
       cx="18.51"
       cy="66.292999"
       r="69.648003"
       gradientTransform="matrix(0.17025937,-0.20251208,0.13377333,0.11247437,242.42744,262.8538)"
       gradientUnits="userSpaceOnUse">
      <stop
         offset=".073"
         stop-color="#eacc7b"
         id="stop17" />
      <stop
         offset=".184"
         stop-color="#ecaa59"
         id="stop19" />
      <stop
         offset=".307"
         stop-color="#ef802e"
         id="stop21" />
      <stop
         offset=".358"
         stop-color="#ef6d3a"
         id="stop23" />
      <stop
         offset=".46"
         stop-color="#f04b50"
         id="stop25" />
      <stop
         offset=".516"
         stop-color="#f03e58"
         id="stop27" />
      <stop
         offset=".689"
         stop-color="#db359e"
         id="stop29" />
      <stop
         offset=".724"
         stop-color="#ce37a4"
         id="stop31" />
      <stop
         offset=".789"
         stop-color="#ac3cb4"
         id="stop33" />
      <stop
         offset=".877"
         stop-color="#7544cf"
         id="stop35" />
      <stop
         offset=".98"
         stop-color="#2b4ff2"
         id="stop37" />
    </radialGradient>
  </defs>
  <g
     inkscape:label="Layer 1"
     inkscape:groupmode="layer"
     id="layer1"
     transform="translate(-251.93127,-251.93127)">
    <path
       fill="url(#TGwjmZMm2W~B4yrgup6jdb)"
       d="m 261.45627,264.1021 h -6.87917 c -1.45521,0 -2.64583,-1.19063 -2.64583,-2.64583 v -6.87917 c 0,-1.45521 1.19062,-2.64583 2.64583,-2.64583 h 6.87917 c 1.45521,0 2.64583,1.19062 2.64583,2.64583 v 6.87917 c 0,1.4552 -1.19062,2.64583 -2.64583,2.64583 z"
       id="path40"
       style="fill:url(#TGwjmZMm2W~B4yrgup6jdb);stroke-width:0.264583" />
    <path
       fill="#ffffff"
       d="m 258.01669,254.31252 c 1.21708,0 1.34937,0 1.82562,0.0264 0.44979,0.0265 0.68792,0.10584 0.84667,0.15875 0.21166,0.0794 0.37041,0.18521 0.52916,0.34396 0.15875,0.15875 0.26459,0.3175 0.34396,0.52917 0.0529,0.15875 0.13229,0.39687 0.15875,0.84667 0,0.44979 0,0.58208 0,1.79916 0,1.21709 0,1.34938 -0.0265,1.82563 -0.0265,0.44979 -0.10583,0.68791 -0.15875,0.84666 -0.0794,0.21167 -0.1852,0.37042 -0.34395,0.52917 -0.15875,0.15875 -0.3175,0.26458 -0.52917,0.34396 -0.15875,0.0529 -0.39688,0.13229 -0.84667,0.15875 -0.44979,0 -0.58208,0 -1.79916,0 -1.21709,0 -1.34938,0 -1.82563,-0.0265 -0.44979,-0.0265 -0.68792,-0.10583 -0.84667,-0.15875 -0.21166,-0.0794 -0.37041,-0.18521 -0.52916,-0.34396 -0.15875,-0.15875 -0.26459,-0.3175 -0.34396,-0.52916 -0.0529,-0.15875 -0.13229,-0.39688 -0.15875,-0.84667 0,-0.44979 0,-0.58208 0,-1.79917 0,-1.21708 0,-1.34937 0.0265,-1.82562 0.0265,-0.44979 0.10583,-0.68792 0.15875,-0.84667 0.0794,-0.21167 0.18521,-0.37042 0.34396,-0.52917 0.15875,-0.15875 0.3175,-0.26458 0.52916,-0.34395 0.15875,-0.0529 0.39688,-0.1323 0.84667,-0.15875 0.44979,0 0.58208,0 1.79917,0 m 0,-0.79375 c -1.21709,0 -1.37584,0 -1.85209,0.0265 -0.47625,0.0265 -0.79375,0.10584 -1.08479,0.21167 -0.29104,0.10583 -0.55562,0.26458 -0.79375,0.52917 -0.23812,0.26458 -0.39687,0.50271 -0.52917,0.79375 -0.10583,0.29104 -0.1852,0.60854 -0.21166,1.08479 -0.0265,0.47625 -0.0265,0.635 -0.0265,1.85208 0,1.21709 0,1.37584 0.0265,1.85209 0.0265,0.47625 0.10583,0.79375 0.21166,1.08479 0.10584,0.29104 0.26459,0.55562 0.52917,0.79375 0.23813,0.23812 0.50271,0.39687 0.79375,0.52916 0.29104,0.10584 0.60854,0.18521 1.08479,0.21167 0.47625,0.0265 0.635,0.0265 1.85209,0.0265 1.21708,0 1.37583,0 1.85208,-0.0265 0.47625,-0.0265 0.79375,-0.10583 1.08479,-0.21167 0.29104,-0.10583 0.55563,-0.26458 0.79375,-0.52916 0.23813,-0.23813 0.39688,-0.50271 0.52917,-0.79375 0.10583,-0.29104 0.18521,-0.60854 0.21166,-1.08479 0.0265,-0.47625 0.0265,-0.635 0.0265,-1.85209 0,-1.21708 0,-1.37583 -0.0265,-1.85208 -0.0265,-0.47625 -0.10583,-0.79375 -0.21166,-1.08479 -0.10584,-0.29104 -0.26459,-0.55563 -0.52917,-0.79375 -0.26458,-0.23813 -0.50271,-0.39688 -0.79375,-0.52917 -0.29104,-0.10583 -0.60854,-0.18521 -1.08479,-0.21167 -0.47625,-0.0265 -0.635,-0.0265 -1.85208,-0.0265 z"
       id="path42"
       style="stroke-width:0.264583" />
    <path
       fill="#ffffff"
       d="m 258.01669,255.63543 c -1.32292,0 -2.38125,1.05834 -2.38125,2.38125 0,1.32292 1.05833,2.38125 2.38125,2.38125 1.32291,0 2.38125,-1.05833 2.38125,-2.38125 0,-1.32291 -1.05834,-2.38125 -2.38125,-2.38125 z m 0,3.96875 c -0.87313,0 -1.5875,-0.71437 -1.5875,-1.5875 0,-0.87312 0.71437,-1.5875 1.5875,-1.5875 0.87312,0 1.5875,0.71438 1.5875,1.5875 0,0.87313 -0.71438,1.5875 -1.5875,1.5875 z"
       id="path44"
       style="stroke-width:0.264583" />
    <circle
       cx="260.39795"
       cy="255.63544"
       r="0.52916664"
       fill="#ffffff"
       id="circle46"
       style="stroke-width:0.264583" />
  </g>
</svg>
