<?xml version="1.0" encoding="UTF-8" standalone="no"?>
<svg
   xmlns:dc="http://purl.org/dc/elements/1.1/"
   xmlns:cc="http://creativecommons.org/ns#"
   xmlns:rdf="http://www.w3.org/1999/02/22-rdf-syntax-ns#"
   xmlns:svg="http://www.w3.org/2000/svg"
   xmlns="http://www.w3.org/2000/svg"
   xmlns:sodipodi="http://sodipodi.sourceforge.net/DTD/sodipodi-0.dtd"
   xmlns:inkscape="http://www.inkscape.org/namespaces/inkscape"
   width="73.314499mm"
   height="29.18042mm"
   viewBox="0 0 73.314498 29.18042"
   version="1.1"
   id="svg8"
   inkscape:version="1.0.2 (e86c8708, 2021-01-15)"
   sodipodi:docname="welcom_letter.svg">
  <defs
     id="defs2">
    <clipPath
       clipPathUnits="userSpaceOnUse"
       id="clipPath850">
      <path
         id="path852"
         style="fill:#ff0000;stroke:none;stroke-width:2.094"
         d="m 120.02698,49.637326 h 37.29809 v 41.224215 h -37.29809 l -1.22938,-13.323175 1.08916,-4.764998 z"
         sodipodi:nodetypes="ccccccc" />
    </clipPath>
    <clipPath
       clipPathUnits="userSpaceOnUse"
       id="clipPath908">
      <rect
         style="fill:#ff0000;stroke:none;stroke-width:2.06723"
         id="rect910"
         width="52.341709"
         height="32.47757"
         x="-79.268448"
         y="44.39613" />
    </clipPath>
  </defs>
  <sodipodi:namedview
     id="base"
     pagecolor="#ffffff"
     bordercolor="#666666"
     borderopacity="1.0"
     inkscape:pageopacity="0.0"
     inkscape:pageshadow="2"
     inkscape:zoom="0.82311498"
     inkscape:cx="98.672426"
     inkscape:cy="210.97273"
     inkscape:document-units="mm"
     inkscape:current-layer="text846"
     inkscape:document-rotation="0"
     showgrid="false"
     inkscape:pagecheckerboard="true"
     fit-margin-top="0"
     fit-margin-left="0"
     fit-margin-right="0"
     fit-margin-bottom="0"
     inkscape:window-width="1663"
     inkscape:window-height="943"
     inkscape:window-x="0"
     inkscape:window-y="25"
     inkscape:window-maximized="0" />
  <metadata
     id="metadata5">
    <rdf:RDF>
      <cc:Work
         rdf:about="">
        <dc:format>image/svg+xml</dc:format>
        <dc:type
           rdf:resource="http://purl.org/dc/dcmitype/StillImage" />
        <dc:title></dc:title>
      </cc:Work>
    </rdf:RDF>
  </metadata>
  <g
     inkscape:label="レイヤー 1"
     inkscape:groupmode="layer"
     id="layer1"
     transform="translate(71.912109,-130.75195)">
    <g
       aria-label="ウェルカム ボード"
       id="text846"
       style="font-style:normal;font-variant:normal;font-weight:900;font-stretch:normal;font-size:14.8765px;line-height:1.25;font-family:'M PLUS 1';-inkscape-font-specification:'M PLUS 1, Heavy';font-variant-ligatures:normal;font-variant-caps:normal;font-variant-numeric:normal;font-variant-east-asian:normal;text-align:center;text-anchor:middle;fill:#050506;fill-opacity:0.978558;stroke:none;stroke-width:0.372;stroke-miterlimit:4;stroke-dasharray:none;stroke-opacity:1"
       transform="translate(0,-10.094801)">
      <g
         id="path850"
         style="opacity:1;fill:#050506;fill-opacity:0.978558;stroke:none;stroke-opacity:1"
         transform="translate(0,-4.2333335)">
        <path
           style="color:#000000;font-style:normal;font-variant:normal;font-weight:900;font-stretch:normal;font-size:14.8765px;line-height:1.25;font-family:'M PLUS 1';-inkscape-font-specification:'M PLUS 1, Heavy';font-variant-ligatures:normal;font-variant-position:normal;font-variant-caps:normal;font-variant-numeric:normal;font-variant-alternates:normal;font-variant-east-asian:normal;font-feature-settings:normal;font-variation-settings:normal;text-indent:0;text-align:center;text-decoration:none;text-decoration-line:none;text-decoration-style:solid;text-decoration-color:#000000;letter-spacing:normal;word-spacing:normal;text-transform:none;writing-mode:lr-tb;direction:ltr;text-orientation:mixed;dominant-baseline:auto;baseline-shift:baseline;text-anchor:middle;white-space:normal;shape-padding:0;shape-margin:0;inline-size:0;clip-rule:nonzero;display:inline;overflow:visible;visibility:visible;isolation:auto;mix-blend-mode:normal;color-interpolation:sRGB;color-interpolation-filters:linearRGB;solid-color:#000000;solid-opacity:1;vector-effect:none;fill:#050506;fill-opacity:0.978558;fill-rule:nonzero;stroke:none;stroke-width:0.372;stroke-linecap:butt;stroke-linejoin:miter;stroke-miterlimit:4;stroke-dasharray:none;stroke-dashoffset:0;stroke-opacity:1;color-rendering:auto;image-rendering:auto;shape-rendering:auto;text-rendering:auto;enable-background:accumulate;stop-color:#000000;stop-opacity:1"
           d="m -69.717431,155.67879 c 1.428144,-0.01 2.628182,-0.0942 3.600113,-0.2529 0.971931,-0.15868 1.750468,-0.41158 2.33561,-0.7587 0.585143,-0.35703 1.006644,-0.82316 1.264503,-1.39839 0.257859,-0.57523 0.386789,-1.28434 0.386789,-2.12734 v -1.2645 h -6.768808 v 3.19845 h -2.826535 v -5.65307 h 4.76048 v -2.08271 h 2.826535 v 2.08271 h 4.909245 v 3.71912 c 0,1.61658 -0.352077,2.94555 -1.056231,3.9869 -0.694237,1.04136 -1.775262,1.8199 -3.243077,2.33561 -1.467815,0.50581 -3.35713,0.77854 -5.667947,0.81821 z"
           id="path870" />
        <path
           style="color:#000000;font-style:normal;font-variant:normal;font-weight:900;font-stretch:normal;font-size:14.8765px;line-height:1.25;font-family:'M PLUS 1';-inkscape-font-specification:'M PLUS 1, Heavy';font-variant-ligatures:normal;font-variant-position:normal;font-variant-caps:normal;font-variant-numeric:normal;font-variant-alternates:normal;font-variant-east-asian:normal;font-feature-settings:normal;font-variation-settings:normal;text-indent:0;text-align:center;text-decoration:none;text-decoration-line:none;text-decoration-style:solid;text-decoration-color:#000000;letter-spacing:normal;word-spacing:normal;text-transform:none;writing-mode:lr-tb;direction:ltr;text-orientation:mixed;dominant-baseline:auto;baseline-shift:baseline;text-anchor:middle;white-space:normal;shape-padding:0;shape-margin:0;inline-size:0;clip-rule:nonzero;display:inline;overflow:visible;visibility:visible;isolation:auto;mix-blend-mode:normal;color-interpolation:sRGB;color-interpolation-filters:linearRGB;solid-color:#000000;solid-opacity:1;vector-effect:none;fill:#050506;fill-opacity:0.978558;fill-rule:nonzero;stroke:none;stroke-linecap:butt;stroke-linejoin:miter;stroke-miterlimit:4;stroke-dasharray:none;stroke-dashoffset:0;stroke-opacity:1;color-rendering:auto;image-rendering:auto;shape-rendering:auto;text-rendering:auto;enable-background:accumulate;stop-color:#000000;stop-opacity:1"
           d="m -67.150391,145.1543 v 2.08203 h -4.761718 v 6.02539 h 3.199218 v -3.19922 h 6.396485 v 1.07812 c 0,0.82404 -0.127108,1.50846 -0.371094,2.05274 -0.242253,0.54041 -0.633807,0.97423 -1.191406,1.31445 -0.556851,0.33003 -1.31182,0.57834 -2.267578,0.73438 -0.958244,0.15643 -2.150716,0.24011 -3.572266,0.25 l -0.224609,0.002 0.04297,0.2207 0.550782,2.75586 0.15625,-0.002 c 2.323706,-0.0399 4.229785,-0.31301 5.724609,-0.82813 l 0.002,-0.002 c 1.496102,-0.52565 2.616002,-1.32634 3.335938,-2.40625 0.729171,-1.07835 1.08789,-2.44821 1.08789,-4.0918 v -3.90429 h -4.910156 v -2.08203 z m 0.371094,0.37109 h 2.455078 v 2.08203 h 4.908203 v 3.5332 c 0,1.58958 -0.3443,2.87846 -1.023437,3.88282 v 0.002 h -0.002 c -0.668538,1.00281 -1.70891,1.7579 -3.148438,2.26367 -1.402182,0.48319 -3.244894,0.73464 -5.458984,0.78516 l -0.445313,-2.22461 c 1.320656,-0.018 2.481104,-0.0892 3.40625,-0.24023 0.98736,-0.1612 1.78708,-0.41742 2.400391,-0.78126 l 0.002,-0.002 c 0.612686,-0.37384 1.064425,-0.87043 1.337891,-1.48047 0.271732,-0.60617 0.402344,-1.34311 0.402344,-2.20508 v -1.44921 h -7.140626 v 3.19726 h -2.453124 v -5.28125 h 4.759765 z"
           id="path872" />
      </g>
      <g
         id="path853"
         style="opacity:1;fill:#050506;fill-opacity:0.978558;stroke:none;stroke-opacity:1"
         transform="translate(0,-4.2333335)">
        <path
           style="color:#000000;font-style:normal;font-variant:normal;font-weight:900;font-stretch:normal;font-size:14.8765px;line-height:1.25;font-family:'M PLUS 1';-inkscape-font-specification:'M PLUS 1, Heavy';font-variant-ligatures:normal;font-variant-position:normal;font-variant-caps:normal;font-variant-numeric:normal;font-variant-alternates:normal;font-variant-east-asian:normal;font-feature-settings:normal;font-variation-settings:normal;text-indent:0;text-align:center;text-decoration:none;text-decoration-line:none;text-decoration-style:solid;text-decoration-color:#000000;letter-spacing:normal;word-spacing:normal;text-transform:none;writing-mode:lr-tb;direction:ltr;text-orientation:mixed;dominant-baseline:auto;baseline-shift:baseline;text-anchor:middle;white-space:normal;shape-padding:0;shape-margin:0;inline-size:0;clip-rule:nonzero;display:inline;overflow:visible;visibility:visible;isolation:auto;mix-blend-mode:normal;color-interpolation:sRGB;color-interpolation-filters:linearRGB;solid-color:#000000;solid-opacity:1;vector-effect:none;fill:#050506;fill-opacity:0.978558;fill-rule:nonzero;stroke:none;stroke-width:0.372;stroke-linecap:butt;stroke-linejoin:miter;stroke-miterlimit:4;stroke-dasharray:none;stroke-dashoffset:0;stroke-opacity:1;color-rendering:auto;image-rendering:auto;shape-rendering:auto;text-rendering:auto;enable-background:accumulate;stop-color:#000000;stop-opacity:1"
           d="m -55.599633,157.82101 v -2.32073 h 3.659619 v -4.40345 h -3.421595 v -2.32073 h 9.52096 v 2.32073 h -3.421595 v 4.40345 h 3.659619 v 2.32073 z"
           id="path876" />
        <path
           style="color:#000000;font-style:normal;font-variant:normal;font-weight:900;font-stretch:normal;font-size:14.8765px;line-height:1.25;font-family:'M PLUS 1';-inkscape-font-specification:'M PLUS 1, Heavy';font-variant-ligatures:normal;font-variant-position:normal;font-variant-caps:normal;font-variant-numeric:normal;font-variant-alternates:normal;font-variant-east-asian:normal;font-feature-settings:normal;font-variation-settings:normal;text-indent:0;text-align:center;text-decoration:none;text-decoration-line:none;text-decoration-style:solid;text-decoration-color:#000000;letter-spacing:normal;word-spacing:normal;text-transform:none;writing-mode:lr-tb;direction:ltr;text-orientation:mixed;dominant-baseline:auto;baseline-shift:baseline;text-anchor:middle;white-space:normal;shape-padding:0;shape-margin:0;inline-size:0;clip-rule:nonzero;display:inline;overflow:visible;visibility:visible;isolation:auto;mix-blend-mode:normal;color-interpolation:sRGB;color-interpolation-filters:linearRGB;solid-color:#000000;solid-opacity:1;vector-effect:none;fill:#050506;fill-opacity:0.978558;fill-rule:nonzero;stroke:none;stroke-linecap:butt;stroke-linejoin:miter;stroke-miterlimit:4;stroke-dasharray:none;stroke-dashoffset:0;stroke-opacity:1;color-rendering:auto;image-rendering:auto;shape-rendering:auto;text-rendering:auto;enable-background:accumulate;stop-color:#000000;stop-opacity:1"
           d="m -55.546875,148.58984 v 2.69336 h 3.419922 v 4.03125 h -3.658203 v 2.69336 h 0.185547 10.183593 v -2.69336 h -3.660156 v -4.03125 h 3.421875 v -2.69336 z m 0.371094,0.37305 h 9.148437 v 1.94727 h -3.421875 v 4.77539 h 3.660157 v 1.94922 h -9.625 v -1.94922 h 3.660156 v -4.77539 h -3.421875 z"
           id="path878" />
      </g>
      <g
         id="path855"
         style="opacity:1;fill:#050506;fill-opacity:0.978558;stroke:none;stroke-opacity:1"
         transform="translate(0,-4.2333335)">
        <path
           style="color:#000000;font-style:normal;font-variant:normal;font-weight:900;font-stretch:normal;font-size:14.8765px;line-height:1.25;font-family:'M PLUS 1';-inkscape-font-specification:'M PLUS 1, Heavy';font-variant-ligatures:normal;font-variant-position:normal;font-variant-caps:normal;font-variant-numeric:normal;font-variant-alternates:normal;font-variant-east-asian:normal;font-feature-settings:normal;font-variation-settings:normal;text-indent:0;text-align:center;text-decoration:none;text-decoration-line:none;text-decoration-style:solid;text-decoration-color:#000000;letter-spacing:normal;word-spacing:normal;text-transform:none;writing-mode:lr-tb;direction:ltr;text-orientation:mixed;dominant-baseline:auto;baseline-shift:baseline;text-anchor:middle;white-space:normal;shape-padding:0;shape-margin:0;inline-size:0;clip-rule:nonzero;display:inline;overflow:visible;visibility:visible;isolation:auto;mix-blend-mode:normal;color-interpolation:sRGB;color-interpolation-filters:linearRGB;solid-color:#000000;solid-opacity:1;vector-effect:none;fill:#050506;fill-opacity:0.978558;fill-rule:nonzero;stroke:none;stroke-width:0.372;stroke-linecap:butt;stroke-linejoin:miter;stroke-miterlimit:4;stroke-dasharray:none;stroke-dashoffset:0;stroke-opacity:1;color-rendering:auto;image-rendering:auto;shape-rendering:auto;text-rendering:auto;enable-background:accumulate;stop-color:#000000;stop-opacity:1"
           d="M -36.245306,158.13342 V 145.8603 h 2.900918 v 11.00861 l -1.710798,-1.48765 c 0.862837,0 1.571951,-0.15372 2.12734,-0.46117 0.565307,-0.30745 0.996725,-0.79341 1.294255,-1.45789 0.307448,-0.66449 0.505801,-1.53724 0.59506,-2.61827 l 2.67777,0.37191 c -0.119012,1.50749 -0.456213,2.77695 -1.011602,3.80839 -0.545471,1.03143 -1.294255,1.80997 -2.246351,2.33561 -0.952096,0.51572 -2.097587,0.77358 -3.436472,0.77358 z m -6.84319,-2.1571 c 0.525636,-0.26777 0.952096,-0.54051 1.279379,-0.8182 0.337201,-0.2777 0.59506,-0.60994 0.773578,-0.99673 0.178518,-0.38679 0.302489,-0.86779 0.371913,-1.44302 0.06942,-0.58514 0.104135,-1.30913 0.104135,-2.17197 v -4.6861 h 2.826535 v 4.90925 c 0,1.08103 -0.06942,2.02816 -0.208271,2.84141 -0.138847,0.80333 -0.357036,1.50253 -0.654566,2.09759 -0.29753,0.59506 -0.694237,1.10582 -1.19012,1.53228 -0.495883,0.42646 -1.100861,0.79837 -1.814933,1.11573 z"
           id="path882" />
        <path
           style="color:#000000;font-style:normal;font-variant:normal;font-weight:900;font-stretch:normal;font-size:14.8765px;line-height:1.25;font-family:'M PLUS 1';-inkscape-font-specification:'M PLUS 1, Heavy';font-variant-ligatures:normal;font-variant-position:normal;font-variant-caps:normal;font-variant-numeric:normal;font-variant-alternates:normal;font-variant-east-asian:normal;font-feature-settings:normal;font-variation-settings:normal;text-indent:0;text-align:center;text-decoration:none;text-decoration-line:none;text-decoration-style:solid;text-decoration-color:#000000;letter-spacing:normal;word-spacing:normal;text-transform:none;writing-mode:lr-tb;direction:ltr;text-orientation:mixed;dominant-baseline:auto;baseline-shift:baseline;text-anchor:middle;white-space:normal;shape-padding:0;shape-margin:0;inline-size:0;clip-rule:nonzero;display:inline;overflow:visible;visibility:visible;isolation:auto;mix-blend-mode:normal;color-interpolation:sRGB;color-interpolation-filters:linearRGB;solid-color:#000000;solid-opacity:1;vector-effect:none;fill:#050506;fill-opacity:0.978558;fill-rule:nonzero;stroke:none;stroke-linecap:butt;stroke-linejoin:miter;stroke-miterlimit:4;stroke-dasharray:none;stroke-dashoffset:0;stroke-opacity:1;color-rendering:auto;image-rendering:auto;shape-rendering:auto;text-rendering:auto;enable-background:accumulate;stop-color:#000000;stop-opacity:1"
           d="m -40.746094,145.67383 v 4.87305 c 0,0.85785 -0.0334,1.57587 -0.101562,2.15039 -0.0678,0.56032 -0.189983,1.02393 -0.357422,1.38671 -0.166943,0.36171 -0.405733,0.66869 -0.722656,0.92969 v 0.002 h -0.002 c -0.312315,0.265 -0.727764,0.53187 -1.24414,0.79493 l -0.179688,0.0918 0.107422,0.17188 1.572266,2.51758 0.148437,-0.0645 c 0.727726,-0.32342 1.349275,-0.70416 1.861329,-1.14453 0.514366,-0.44235 0.926308,-0.97566 1.234374,-1.59179 0.307328,-0.61466 0.530543,-1.33073 0.671876,-2.14844 0.141148,-0.82673 0.210937,-1.78406 0.210937,-2.87305 v -5.0957 z m 4.314453,0 v 12.64648 h 0.185547 1.191406 c 1.362767,0 2.541189,-0.26376 3.525391,-0.79687 0.983192,-0.54281 1.760143,-1.35202 2.320313,-2.41016 0.570693,-1.05986 0.912666,-2.35601 1.033203,-3.88281 l 0.01367,-0.17383 -3.044922,-0.42383 -0.01758,0.19531 c -0.08807,1.06669 -0.283938,1.92082 -0.578125,2.55665 v 0.002 c -0.283947,0.63414 -0.686913,1.08202 -1.214844,1.36914 v 0.002 c -0.03583,0.0198 -0.103302,0.0108 -0.140625,0.0293 v -9.11328 z m -3.941406,0.37305 h 2.453125 v 4.72265 c 0,1.07306 -0.06853,2.01078 -0.205078,2.81055 -0.136363,0.78896 -0.348986,1.46945 -0.636719,2.04492 -0.286993,0.57399 -0.667131,1.06404 -1.144531,1.47461 -0.442657,0.38069 -1.002361,0.70931 -1.632812,1.00391 l -1.294922,-2.07032 c 0.443312,-0.2385 0.844821,-0.47995 1.142578,-0.73242 0.357478,-0.2944 0.634125,-0.64868 0.824218,-1.06055 0.189376,-0.41031 0.31757,-0.91086 0.388672,-1.5 0.07068,-0.59576 0.105469,-1.32553 0.105469,-2.19335 z m 4.314453,0 h 2.527344 v 8.82031 c -0.448265,0.16273 -0.894612,0.32812 -1.523438,0.32812 h -0.498046 l 2.394531,2.08203 v -2.125 c 0.09169,-0.0402 0.234885,-0.023 0.320312,-0.0703 0.600701,-0.32742 1.062364,-0.84851 1.373047,-1.54101 0.297835,-0.64371 0.469744,-1.49985 0.56836,-2.49024 l 2.304687,0.32031 c -0.130792,1.39924 -0.427847,2.60707 -0.943359,3.56446 l -0.002,0.002 c -0.530668,1.00344 -1.251686,1.75174 -2.171875,2.25977 -0.919693,0.49778 -2.03143,0.75 -3.345704,0.75 h -1.003906 z m 2.527344,9.1875 v 1.22656 l -1.126953,-0.98047 c 0.423658,-0.0288 0.778994,-0.13319 1.126953,-0.24609 z"
           id="path884" />
      </g>
      <g
         id="path857"
         style="opacity:1;fill:#050506;fill-opacity:0.978558;stroke:none;stroke-opacity:1"
         transform="translate(0,-4.2333335)">
        <path
           style="color:#000000;font-style:normal;font-variant:normal;font-weight:900;font-stretch:normal;font-size:14.8765px;line-height:1.25;font-family:'M PLUS 1';-inkscape-font-specification:'M PLUS 1, Heavy';font-variant-ligatures:normal;font-variant-position:normal;font-variant-caps:normal;font-variant-numeric:normal;font-variant-alternates:normal;font-variant-east-asian:normal;font-feature-settings:normal;font-variation-settings:normal;text-indent:0;text-align:center;text-decoration:none;text-decoration-line:none;text-decoration-style:solid;text-decoration-color:#000000;letter-spacing:normal;word-spacing:normal;text-transform:none;writing-mode:lr-tb;direction:ltr;text-orientation:mixed;dominant-baseline:auto;baseline-shift:baseline;text-anchor:middle;white-space:normal;shape-padding:0;shape-margin:0;inline-size:0;clip-rule:nonzero;display:inline;overflow:visible;visibility:visible;isolation:auto;mix-blend-mode:normal;color-interpolation:sRGB;color-interpolation-filters:linearRGB;solid-color:#000000;solid-opacity:1;vector-effect:none;fill:#050506;fill-opacity:0.978558;fill-rule:nonzero;stroke:none;stroke-width:0.372;stroke-linecap:butt;stroke-linejoin:miter;stroke-miterlimit:4;stroke-dasharray:none;stroke-dashoffset:0;stroke-opacity:1;color-rendering:auto;image-rendering:auto;shape-rendering:auto;text-rendering:auto;enable-background:accumulate;stop-color:#000000;stop-opacity:1"
           d="m -17.575297,158.05903 c -0.287613,0 -0.629772,-0.01 -1.026479,-0.0298 -0.396707,-0.0199 -0.823166,-0.0496 -1.279379,-0.0893 -0.456213,-0.0297 -0.927302,-0.0644 -1.413267,-0.10413 l 0.223147,-2.60339 c 0.257859,0.0199 0.560348,0.0447 0.907467,0.0744 0.347118,0.0199 0.67936,0.0397 0.996725,0.0595 0.317365,0.01 0.550431,0.0149 0.699196,0.0149 0.158683,0 0.287612,-0.0298 0.386789,-0.0893 0.109094,-0.0595 0.193394,-0.19831 0.2529,-0.41654 0.06942,-0.22811 0.119012,-0.58514 0.148765,-1.07111 0.03967,-0.48596 0.06943,-1.1554 0.08926,-2.00832 0.02975,-0.85292 0.05951,-1.93891 0.08926,-3.25796 l 1.472774,1.48765 h -11.365646 v -2.529 h 12.719407 v 1.33888 c 0,1.56699 -0.02479,2.89596 -0.07438,3.98691 -0.03967,1.08102 -0.119015,1.96865 -0.238024,2.66289 -0.119012,0.68432 -0.287612,1.21491 -0.505801,1.59178 -0.208271,0.36696 -0.485966,0.61986 -0.833084,0.75871 -0.337201,0.14876 -0.753743,0.22314 -1.249626,0.22314 z m -10.041638,-1.68104 c 0.614895,-0.47605 1.135573,-0.94218 1.562033,-1.39839 0.426459,-0.45621 0.773578,-0.95706 1.041355,-1.50253 0.277695,-0.55539 0.490924,-1.20003 0.639689,-1.93394 0.148765,-0.74383 0.252901,-1.62154 0.312407,-2.63314 0.05951,-1.02152 0.08926,-2.23644 0.08926,-3.64475 h 2.752152 c 0,1.53724 -0.04463,2.89596 -0.133888,4.07616 -0.08926,1.17029 -0.238024,2.20668 -0.446295,3.10919 -0.198353,0.90251 -0.471089,1.70088 -0.818208,2.39512 -0.347118,0.69423 -0.778536,1.32401 -1.294255,1.88932 -0.515719,0.56531 -1.130614,1.10582 -1.844686,1.62153 z"
           id="path888" />
        <path
           style="color:#000000;font-style:normal;font-variant:normal;font-weight:900;font-stretch:normal;font-size:14.8765px;line-height:1.25;font-family:'M PLUS 1';-inkscape-font-specification:'M PLUS 1, Heavy';font-variant-ligatures:normal;font-variant-position:normal;font-variant-caps:normal;font-variant-numeric:normal;font-variant-alternates:normal;font-variant-east-asian:normal;font-feature-settings:normal;font-variation-settings:normal;text-indent:0;text-align:center;text-decoration:none;text-decoration-line:none;text-decoration-style:solid;text-decoration-color:#000000;letter-spacing:normal;word-spacing:normal;text-transform:none;writing-mode:lr-tb;direction:ltr;text-orientation:mixed;dominant-baseline:auto;baseline-shift:baseline;text-anchor:middle;white-space:normal;shape-padding:0;shape-margin:0;inline-size:0;clip-rule:nonzero;display:inline;overflow:visible;visibility:visible;isolation:auto;mix-blend-mode:normal;color-interpolation:sRGB;color-interpolation-filters:linearRGB;solid-color:#000000;solid-opacity:1;vector-effect:none;fill:#050506;fill-opacity:0.978558;fill-rule:nonzero;stroke:none;stroke-linecap:butt;stroke-linejoin:miter;stroke-miterlimit:4;stroke-dasharray:none;stroke-dashoffset:0;stroke-opacity:1;color-rendering:auto;image-rendering:auto;shape-rendering:auto;text-rendering:auto;enable-background:accumulate;stop-color:#000000;stop-opacity:1"
           d="m -24.158203,145.08008 v 0.18554 c 0,0.79128 -0.03198,1.3768 -0.05078,2.04493 h -3.371094 v 2.90039 h 3.175781 c -0.05137,0.43124 -0.07958,0.93112 -0.152344,1.29492 -0.146103,0.72077 -0.354066,1.35071 -0.623047,1.88867 -0.259604,0.52883 -0.59725,1.0156 -1.011718,1.45899 -0.418046,0.44721 -0.930451,0.90577 -1.539063,1.37695 l -0.162109,0.125 0.140625,0.15039 1.970703,2.09766 0.132812,-0.0957 c 0.722994,-0.52215 1.347502,-1.0704 1.873047,-1.64648 0.527265,-0.57797 0.969654,-1.22252 1.324219,-1.93164 0.354944,-0.70989 0.630977,-1.52335 0.832031,-2.4375 v -0.002 c 0.153216,-0.66428 0.239028,-1.47597 0.328125,-2.27929 h 3.558594 c -0.01441,0.52257 -0.02857,1.16528 -0.04297,1.57812 v 0.002 c -0.01979,0.85085 -0.05068,1.51837 -0.08984,1.99804 v 0.002 0.002 c -0.02932,0.47893 -0.07976,0.82735 -0.140625,1.02734 l -0.002,0.004 v 0.002 c -0.05304,0.19453 -0.124488,0.28223 -0.16211,0.30274 l -0.0039,0.002 -0.0039,0.002 c -0.06165,0.037 -0.155594,0.0625 -0.291016,0.0625 -0.144625,0 -0.376902,-0.006 -0.693359,-0.0156 l 0.0059,0.002 c -0.316472,-0.0197 -0.646252,-0.0407 -0.992188,-0.0605 h -0.0039 c -0.345647,-0.0296 -0.64683,-0.0544 -0.904297,-0.0742 l -0.183593,-0.0137 -0.25586,2.97266 0.1875,0.0156 c 0.48558,0.0397 0.955988,0.0738 1.41211,0.10352 0.458178,0.0398 0.88583,0.0699 1.285156,0.0898 0.398949,0.02 0.743261,0.0293 1.035156,0.0293 h 0.179688 l 0.002,-0.0332 c 0.424609,-0.0182 0.822188,-0.0644 1.138672,-0.20313 l 0.002,-0.002 c 0.38563,-0.15497 0.697287,-0.44139 0.921875,-0.83594 0.2353,-0.40642 0.407985,-0.9548 0.529297,-1.65234 0.121144,-0.7067 0.200364,-1.60113 0.240234,-2.6875 0.04977,-1.09498 0.07422,-2.42519 0.07422,-3.99414 v -1.52539 h -6.613281 c 0.02239,-0.68167 0.06836,-1.27449 0.06836,-2.04493 v -0.18554 z m 0.367187,0.37109 h 2.378907 c -0.0019,0.69444 -0.04005,1.24016 -0.06055,1.85938 h -2.363282 c 0.017,-0.60831 0.04338,-1.15143 0.04492,-1.85938 z m -3.416015,2.23242 h 2.988281 c -0.0132,0.38354 -0.0095,0.8749 -0.0293,1.21485 -0.02135,0.36292 -0.07848,0.61387 -0.111328,0.9414 h -2.847656 z m 3.361328,0 h 2.361328 c -0.02143,0.53432 -0.01874,1.16922 -0.05469,1.64453 -0.01474,0.19325 -0.05622,0.32596 -0.07422,0.51172 h -2.371094 c 0.03145,-0.32005 0.0887,-0.56641 0.109375,-0.91796 v -0.002 c 0.02023,-0.34727 0.01593,-0.84513 0.0293,-1.23633 z m 2.732422,0 h 6.251953 v 1.15235 c 0,1.56503 -0.02286,2.8916 -0.07227,3.97851 h -0.002 v 0.002 c -0.03948,1.07566 -0.1175,1.95493 -0.234375,2.63671 -0.116712,0.6711 -0.283298,1.18394 -0.484375,1.53126 -0.191347,0.33713 -0.433668,0.55706 -0.740234,0.67968 h -0.0039 l -0.002,0.002 c -0.306394,0.13517 -0.698497,0.20703 -1.175781,0.20703 -0.28333,0 -0.621161,-0.01 -1.015625,-0.0293 -0.394088,-0.0197 -0.81919,-0.0504 -1.273437,-0.0898 h -0.002 -0.002 c -0.395243,-0.0258 -0.806827,-0.0566 -1.224609,-0.0898 l 0.191406,-2.23047 c 0.219531,0.0174 0.446191,0.0349 0.722656,0.0586 h 0.002 0.0039 c 0.346827,0.0199 0.679076,0.0408 0.996094,0.0605 h 0.002 0.002 c 0.318274,0.01 0.552173,0.0137 0.705078,0.0137 0.18055,0 0.342442,-0.0345 0.478516,-0.11524 0.177423,-0.0986 0.274349,-0.28659 0.339843,-0.52539 0.07724,-0.2552 0.126151,-0.61673 0.15625,-1.10547 v -0.004 c 0.04003,-0.49152 0.07,-1.16152 0.08984,-2.01368 v -0.002 c 0.01453,-0.41669 0.02845,-1.0625 0.04297,-1.58984 h 1.779297 l -2.095703,-2.11524 -0.0098,0.4375 c -0.01194,0.52917 -0.02322,0.85262 -0.03516,1.30664 h -3.515625 c 0.01674,-0.17557 0.05644,-0.30249 0.07031,-0.48437 0.03667,-0.48492 0.03304,-1.12779 0.05469,-1.67188 z m 3.787109,1.29493 0.853516,0.86132 h -0.876953 c 0.0079,-0.2997 0.01557,-0.52911 0.02344,-0.86132 z m -6.703125,1.23242 h 2.363281 c -0.08736,0.77419 -0.16972,1.56163 -0.316406,2.19726 v 0.002 c -0.195617,0.89005 -0.463696,1.67348 -0.802734,2.35156 -0.339672,0.67934 -0.761453,1.295 -1.265625,1.84766 -0.471715,0.51707 -1.048445,1.01051 -1.69336,1.48828 l -1.607421,-1.70899 c 0.545152,-0.43312 1.038638,-0.86083 1.43164,-1.28125 0.437819,-0.46836 0.796477,-0.98569 1.072266,-1.54687 0.286409,-0.57282 0.504823,-1.23343 0.65625,-1.98047 0.07777,-0.38887 0.108672,-0.91075 0.162109,-1.36914 z"
           id="path890" />
      </g>
      <g
         id="path859"
         style="opacity:1;fill:#050506;fill-opacity:0.978558;stroke:none;stroke-opacity:1"
         transform="translate(0,-4.2333335)">
        <path
           style="color:#000000;font-style:normal;font-variant:normal;font-weight:900;font-stretch:normal;font-size:14.8765px;line-height:1.25;font-family:'M PLUS 1';-inkscape-font-specification:'M PLUS 1, Heavy';font-variant-ligatures:normal;font-variant-position:normal;font-variant-caps:normal;font-variant-numeric:normal;font-variant-alternates:normal;font-variant-east-asian:normal;font-feature-settings:normal;font-variation-settings:normal;text-indent:0;text-align:center;text-decoration:none;text-decoration-line:none;text-decoration-style:solid;text-decoration-color:#000000;letter-spacing:normal;word-spacing:normal;text-transform:none;writing-mode:lr-tb;direction:ltr;text-orientation:mixed;dominant-baseline:auto;baseline-shift:baseline;text-anchor:middle;white-space:normal;shape-padding:0;shape-margin:0;inline-size:0;clip-rule:nonzero;display:inline;overflow:visible;visibility:visible;isolation:auto;mix-blend-mode:normal;color-interpolation:sRGB;color-interpolation-filters:linearRGB;solid-color:#000000;solid-opacity:1;vector-effect:none;fill:#050506;fill-opacity:0.978558;fill-rule:nonzero;stroke:none;stroke-width:0.372;stroke-linecap:butt;stroke-linejoin:miter;stroke-miterlimit:4;stroke-dasharray:none;stroke-dashoffset:0;stroke-opacity:1;color-rendering:auto;image-rendering:auto;shape-rendering:auto;text-rendering:auto;enable-background:accumulate;stop-color:#000000;stop-opacity:1"
           d="m -11.550316,156.12509 c 0.634731,-1.71576 1.214914,-3.43152 1.7405508,-5.14727 0.5256363,-1.71575 0.9868078,-3.42159 1.3835145,-5.11752 l 2.9009175,0.52068 c -0.386789,1.73559 -0.8578782,3.5059 -1.4132675,5.31091 -0.5454717,1.7951 -1.1653258,3.59516 -1.8595625,5.40017 z m -1.338885,-0.74383 c 1.91411,-0.0793 3.8430963,-0.21819 5.7869588,-0.41654 1.9438627,-0.20827 3.9075607,-0.46613 5.8910941,-0.77358 l 0.37191246,2.52901 c -2.08271006,0.32728 -4.12079056,0.5901 -6.11424156,0.78845 -1.9835333,0.19835 -3.9373138,0.33224 -5.8613408,0.40167 z m 11.3805228,3.12407 c -0.2479417,-0.74383 -0.5405128,-1.52732 -0.8777135,-2.35049 -0.3372007,-0.83308 -0.6942367,-1.64633 -1.071108,-2.43974 -0.3669537,-0.80333 -0.7289485,-1.53724 -1.0859845,-2.20173 l 2.6033875,-1.11573 c 0.3768714,0.68431 0.7537428,1.4331 1.13061406,2.24635 0.386789,0.80333 0.74878384,1.62153 1.08598451,2.45462 0.34711833,0.83309 0.64464834,1.62154 0.89259003,2.36536 z"
           id="path894" />
        <path
           style="color:#000000;font-style:normal;font-variant:normal;font-weight:900;font-stretch:normal;font-size:14.8765px;line-height:1.25;font-family:'M PLUS 1';-inkscape-font-specification:'M PLUS 1, Heavy';font-variant-ligatures:normal;font-variant-position:normal;font-variant-caps:normal;font-variant-numeric:normal;font-variant-alternates:normal;font-variant-east-asian:normal;font-feature-settings:normal;font-variation-settings:normal;text-indent:0;text-align:center;text-decoration:none;text-decoration-line:none;text-decoration-style:solid;text-decoration-color:#000000;letter-spacing:normal;word-spacing:normal;text-transform:none;writing-mode:lr-tb;direction:ltr;text-orientation:mixed;dominant-baseline:auto;baseline-shift:baseline;text-anchor:middle;white-space:normal;shape-padding:0;shape-margin:0;inline-size:0;clip-rule:nonzero;display:inline;overflow:visible;visibility:visible;isolation:auto;mix-blend-mode:normal;color-interpolation:sRGB;color-interpolation-filters:linearRGB;solid-color:#000000;solid-opacity:1;vector-effect:none;fill:#050506;fill-opacity:0.978558;fill-rule:nonzero;stroke:none;stroke-linecap:butt;stroke-linejoin:miter;stroke-miterlimit:4;stroke-dasharray:none;stroke-dashoffset:0;stroke-opacity:1;color-rendering:auto;image-rendering:auto;shape-rendering:auto;text-rendering:auto;enable-background:accumulate;stop-color:#000000;stop-opacity:1"
           d="m -8.5664062,145.64648 -0.041016,0.17188 c -0.3957254,1.69173 -0.8564119,3.3936 -1.3808593,5.10547 -0.4252695,1.38814 -0.9113345,2.77579 -1.4082025,4.16406 -0.498152,0.0286 -1.003866,0.0869 -1.5,0.10742 l -0.183594,0.008 0.0059,0.1836 0.07813,2.7168 0.1875,-0.008 c 1.928105,-0.0696 3.8857265,-0.20361 5.8730468,-0.40234 1.5322403,-0.15246 3.1146645,-0.37702 4.6992188,-0.60547 0.1910961,0.49861 0.3952629,1.01001 0.5507812,1.47656 l 0.0625,0.18555 0.1816407,-0.0723 2.84375,-1.10546 -0.056641,-0.16797 c -0.2493413,-0.74802 -0.54829767,-1.5392 -0.89648435,-2.375 l -0.001953,-0.002 c -0.3378557,-0.83456 -0.70044411,-1.65603 -1.08789062,-2.46093 l -0.001953,-0.004 c -0.37779523,-0.81502 -0.75616803,-1.56646 -1.13476563,-2.25391 l -0.082031,-0.14843 -2.9433594,1.26172 0.095703,0.17968 c 0.3548192,0.66036 0.714544,1.39118 1.0800781,2.19141 l 0.00195,0.002 c 0.076933,0.16197 0.1434727,0.33441 0.21875,0.49805 -1.2418796,0.17088 -2.4888602,0.35497 -3.7148438,0.48633 -0.2355626,0.024 -0.4660504,0.0285 -0.7011718,0.0508 0.3599552,-1.02848 0.7509216,-2.05861 1.0625,-3.08399 h -0.00195 c 0.5567481,-1.80943 1.0300462,-3.58354 1.4179688,-5.32421 l 0.042969,-0.18946 z m 0.2734374,0.42579 2.5351563,0.45703 c -0.3776627,1.671 -0.8251693,3.37125 -1.359375,5.10742 v 0.002 c -0.3253346,1.07065 -0.7309424,2.14639 -1.109375,3.22071 -0.926358,0.0839 -1.8461275,0.14254 -2.7656255,0.19921 0.477731,-1.34196 0.948219,-2.68331 1.3593755,-4.02539 0.5093534,-1.6626 0.9512032,-3.31657 1.3398437,-4.96093 z m 6.2636719,4.56445 c 0.349708,0.64293 0.7003838,1.32981 1.05078128,2.08594 l 0.001953,0.002 c 0.3850517,0.79972 0.74435617,1.61393 1.08007812,2.44336 v 0.002 h 0.001953 c 0.32123008,0.77096 0.5887881,1.49478 0.82421875,2.1875 l -2.33007805,0.90625 c -0.1328249,-0.39085 -0.3002687,-0.81277 -0.4570313,-1.22461 0.3539361,-0.0523 0.6903423,-0.0787 1.04687497,-0.13476 l 0.18164063,-0.0293 -0.4257812,-2.89648 -0.1855469,0.0293 c -0.6006183,0.0931 -1.1862482,0.15039 -1.7832031,0.23438 -0.091305,-0.19981 -0.171869,-0.41004 -0.265625,-0.60742 v 0.004 c -0.3385011,-0.74104 -0.6711691,-1.40855 -1.0019531,-2.0332 z m 0.6621094,3.76172 0.3164063,2.16211 c -0.3201988,0.0498 -0.6233383,0.0744 -0.9414063,0.12109 -0.079673,-0.20336 -0.1373198,-0.38736 -0.2226563,-0.5957 v -0.002 c -0.205572,-0.50782 -0.4320499,-0.99505 -0.6523437,-1.48828 0.5022719,-0.0711 0.9951736,-0.11975 1.5,-0.19726 z m -1.8847656,0.24804 c 0.2348169,0.52228 0.4751739,1.03909 0.6933593,1.57813 0.072634,0.17731 0.1210013,0.3323 0.1894532,0.50586 -1.5512614,0.22249 -3.1032188,0.44447 -4.6035156,0.59375 -1.9162695,0.19163 -3.8018638,0.31567 -5.6621098,0.38672 l -0.0625,-2.15821 c 0.387906,-0.0168 0.78276,-0.0623 1.171875,-0.084 -0.07151,0.19721 -0.126261,0.39458 -0.199218,0.5918 l -0.06641,0.17773 0.179688,0.0625 2.9218749,1.02734 0.064453,-0.16992 c 0.2500737,-0.65019 0.4390899,-1.29635 0.6699219,-1.94531 0.2919824,-0.0272 0.5784434,-0.0326 0.8710937,-0.0625 h 0.00195 c 1.2641739,-0.13544 2.5492484,-0.32659 3.8300781,-0.50391 z m -5.1054688,0.59571 c -0.192546,0.53787 -0.3507926,1.07254 -0.5566406,1.61133 l -2.4003905,-0.84375 c 0.06994,-0.19021 0.124755,-0.38011 0.193359,-0.57032 0.918629,-0.0551 1.8383187,-0.11501 2.7636721,-0.19726 z"
           id="path896" />
      </g>
      <g
         id="path861"
         style="opacity:1;fill:#050506;fill-opacity:0.978558;stroke:none;stroke-opacity:1"
         transform="translate(0,-7.4083337)">
        <path
           style="color:#000000;font-style:normal;font-variant:normal;font-weight:900;font-stretch:normal;font-size:14.8765px;line-height:1.25;font-family:'M PLUS 1';-inkscape-font-specification:'M PLUS 1, Heavy';font-variant-ligatures:normal;font-variant-position:normal;font-variant-caps:normal;font-variant-numeric:normal;font-variant-alternates:normal;font-variant-east-asian:normal;font-feature-settings:normal;font-variation-settings:normal;text-indent:0;text-align:center;text-decoration:none;text-decoration-line:none;text-decoration-style:solid;text-decoration-color:#000000;letter-spacing:normal;word-spacing:normal;text-transform:none;writing-mode:lr-tb;direction:ltr;text-orientation:mixed;dominant-baseline:auto;baseline-shift:baseline;text-anchor:middle;white-space:normal;shape-padding:0;shape-margin:0;inline-size:0;clip-rule:nonzero;display:inline;overflow:visible;visibility:visible;isolation:auto;mix-blend-mode:normal;color-interpolation:sRGB;color-interpolation-filters:linearRGB;solid-color:#000000;solid-opacity:1;vector-effect:none;fill:#050506;fill-opacity:0.978558;fill-rule:nonzero;stroke:none;stroke-width:0.372;stroke-linecap:butt;stroke-linejoin:miter;stroke-miterlimit:4;stroke-dasharray:none;stroke-dashoffset:0;stroke-opacity:1;color-rendering:auto;image-rendering:auto;shape-rendering:auto;text-rendering:auto;enable-background:accumulate;stop-color:#000000;stop-opacity:1"
           d="m -52.014396,177.10095 c -0.168601,0 -0.386789,-0.01 -0.654566,-0.0298 -0.257859,-0.01 -0.540513,-0.0248 -0.847961,-0.0446 -0.307447,-0.0198 -0.624813,-0.0446 -0.952096,-0.0744 l 0.148765,-2.49925 c 0.257859,0.0198 0.490925,0.0396 0.699196,0.0595 0.218189,0.0199 0.406624,0.0347 0.565307,0.0446 0.158683,0.01 0.282653,0.0149 0.371912,0.0149 0.247942,0 0.421501,-0.01 0.520678,-0.0297 0.09918,-0.0297 0.158683,-0.0992 0.178518,-0.20827 0.02975,-0.11901 0.04463,-0.31241 0.04463,-0.58019 v -9.74411 h 2.900918 v 10.11602 c 0,0.60498 -0.04463,1.10582 -0.133889,1.50253 -0.07934,0.38679 -0.228106,0.68432 -0.446295,0.89259 -0.208271,0.21819 -0.505801,0.36695 -0.89259,0.4463 -0.386789,0.0892 -0.887631,0.13388 -1.502527,0.13388 z m -6.024983,-2.529 c 0.42646,-0.79341 0.818208,-1.64137 1.175244,-2.54388 0.366953,-0.90251 0.669442,-1.79014 0.907466,-2.6629 l 2.603388,0.74383 c -0.238024,0.87275 -0.555389,1.80005 -0.952096,2.7819 -0.386789,0.98185 -0.813249,1.91412 -1.279379,2.79679 z m 12.049965,1.11574 c -0.178518,-0.62481 -0.386789,-1.2645 -0.624813,-1.91907 -0.228106,-0.65457 -0.476048,-1.29426 -0.743825,-1.91907 -0.257859,-0.63473 -0.520677,-1.21492 -0.788454,-1.74055 l 2.529005,-0.89259 c 0.456213,0.87275 0.877713,1.7951 1.264502,2.76703 0.386789,0.97193 0.709114,1.90915 0.966973,2.81166 z m -11.454905,-7.21511 v -2.529 h 13.38885 v 2.529 z m 10.071391,-1.41326 c -0.09918,-0.58515 -0.218189,-1.1207 -0.357036,-1.60667 -0.12893,-0.49588 -0.29753,-1.00664 -0.505801,-1.53227 l 1.800056,-0.41655 c 0.188436,0.5058 0.347119,1.01656 0.476048,1.53228 0.138847,0.5058 0.257859,1.05623 0.357036,1.65129 z m 2.395116,-0.20827 c -0.07934,-0.58515 -0.183477,-1.1207 -0.312406,-1.60667 -0.119012,-0.49588 -0.267777,-1.0116 -0.446295,-1.54715 l 1.725674,-0.35704 c 0.198353,0.51572 0.357036,1.03144 0.476048,1.54716 0.119012,0.5058 0.218189,1.05623 0.29753,1.65129 z"
           id="path900" />
        <path
           style="color:#000000;font-style:normal;font-variant:normal;font-weight:900;font-stretch:normal;font-size:14.8765px;line-height:1.25;font-family:'M PLUS 1';-inkscape-font-specification:'M PLUS 1, Heavy';font-variant-ligatures:normal;font-variant-position:normal;font-variant-caps:normal;font-variant-numeric:normal;font-variant-alternates:normal;font-variant-east-asian:normal;font-feature-settings:normal;font-variation-settings:normal;text-indent:0;text-align:center;text-decoration:none;text-decoration-line:none;text-decoration-style:solid;text-decoration-color:#000000;letter-spacing:normal;word-spacing:normal;text-transform:none;writing-mode:lr-tb;direction:ltr;text-orientation:mixed;dominant-baseline:auto;baseline-shift:baseline;text-anchor:middle;white-space:normal;shape-padding:0;shape-margin:0;inline-size:0;clip-rule:nonzero;display:inline;overflow:visible;visibility:visible;isolation:auto;mix-blend-mode:normal;color-interpolation:sRGB;color-interpolation-filters:linearRGB;solid-color:#000000;solid-opacity:1;vector-effect:none;fill:#050506;fill-opacity:0.978558;fill-rule:nonzero;stroke:none;stroke-linecap:butt;stroke-linejoin:miter;stroke-miterlimit:4;stroke-dasharray:none;stroke-dashoffset:0;stroke-opacity:1;color-rendering:auto;image-rendering:auto;shape-rendering:auto;text-rendering:auto;enable-background:accumulate;stop-color:#000000;stop-opacity:1"
           d="m -43.894531,163.12695 -2.083985,0.42969 0.06641,0.19922 c 0.176993,0.53098 0.323773,1.04112 0.441406,1.53125 v 0.002 0.004 c 0.03715,0.14001 0.05681,0.31609 0.08984,0.46484 h -0.234375 c -0.056,-0.25418 -0.09943,-0.53187 -0.164063,-0.76758 l -0.002,-0.004 c -0.130443,-0.52111 -0.290164,-1.03606 -0.480469,-1.54688 l -0.05664,-0.15429 -2.169922,0.50195 0.08008,0.20117 c 0.205734,0.51923 0.371227,1.02396 0.498047,1.51172 v 0.002 l 0.002,0.002 c 0.02188,0.0766 0.03573,0.17471 0.05664,0.2539 h -1.001954 v -1.93359 h -3.273437 v 1.93359 h -5.503906 v 2.90039 h 0.1875 5.316406 v 5.09571 c 0,0.26089 -0.01727,0.44798 -0.03906,0.53515 v 0.006 l -0.002,0.006 c -0.01004,0.0552 -0.01127,0.0484 -0.04687,0.0586 -0.07402,0.0134 -0.233572,0.0273 -0.46875,0.0273 -0.08236,0 -0.204816,-0.006 -0.361328,-0.0156 -0.156235,-0.01 -0.341691,-0.0232 -0.558594,-0.043 -0.20968,-0.02 -0.444342,-0.0407 -0.703125,-0.0605 l -0.1875,-0.0137 -0.171875,2.86718 0.179688,0.0156 c 0.328816,0.0299 0.647836,0.0563 0.957031,0.0762 0.308785,0.0199 0.593748,0.0349 0.853516,0.0449 l -0.0078,-0.002 c 0.270649,0.0201 0.494016,0.0312 0.669922,0.0312 0.622329,0 1.131732,-0.0451 1.539063,-0.13867 0.412251,-0.0846 0.748192,-0.24742 0.988281,-0.49805 0.247968,-0.23894 0.409628,-0.57207 0.49414,-0.98047 0.0937,-0.41646 0.138672,-0.93079 0.138672,-1.54492 v -5.4668 h 4.984375 v -1.81836 l 0.839844,-0.15039 -0.02344,-0.17578 c -0.08004,-0.60029 -0.180156,-1.15531 -0.300782,-1.66797 -0.121048,-0.52454 -0.283038,-1.04879 -0.484375,-1.57226 z m -0.244141,0.42969 c 0.169147,0.45782 0.316422,0.91608 0.421875,1.37305 0.104902,0.44583 0.189687,0.94056 0.263672,1.45898 l -0.416016,0.0742 v -0.70508 h -1.132812 c -0.03908,-0.18168 -0.06421,-0.39031 -0.109375,-0.56054 -0.104839,-0.43634 -0.24066,-0.89393 -0.390625,-1.35938 z m -2.421875,0.16797 c 0.161384,0.4487 0.305837,0.90108 0.419922,1.35742 l 0.002,0.002 v 0.002 c 0.05632,0.20516 0.09472,0.45131 0.144531,0.67187 h -1.478515 c -0.02856,-0.11139 -0.04763,-0.24471 -0.07813,-0.35156 v -0.004 c -0.113642,-0.43653 -0.27182,-0.88815 -0.445313,-1.3457 z m -5.193359,0.4707 h 2.529297 v 1.5625 h -2.529297 z m -5.503906,1.9336 h 5.130859 v 2.1582 h -5.130859 z m 5.503906,0 h 2.529297 v 2.1582 h -2.529297 z m 2.90039,0 h 1.083985 c 0.07368,0.31397 0.153389,0.60987 0.21289,0.96093 l 0.0332,0.19141 0.189454,-0.0391 1.943359,-0.41016 -0.0293,-0.17578 c -0.0316,-0.18958 -0.07765,-0.34652 -0.113281,-0.52734 h 0.224609 c 0.04787,0.25073 0.109424,0.47472 0.146485,0.74804 l 0.02539,0.19141 0.191407,-0.0352 0.703124,-0.12695 v 1.38086 h -4.611328 z m 1.464844,0 h 1.476563 c 0.02861,0.14185 0.06375,0.26826 0.08984,0.41601 l -1.408203,0.29492 c -0.04586,-0.2536 -0.104542,-0.47596 -0.158203,-0.71093 z m 2.458984,0 h 0.6875 v 0.40039 l -0.58789,0.10547 c -0.02676,-0.18024 -0.06794,-0.33499 -0.09961,-0.50586 z m -6.824218,2.52929 h 2.529297 v 5.4668 c 0,0.59583 -0.04409,1.08594 -0.128907,1.46289 l -0.002,0.002 c -0.07392,0.36035 -0.207843,0.62054 -0.392578,0.79688 l -0.002,0.002 -0.0039,0.004 c -0.176338,0.18473 -0.434572,0.31865 -0.794922,0.39258 h -0.002 -0.002 c -0.365748,0.0844 -0.855041,0.1289 -1.460938,0.1289 -0.161295,0 -0.375721,-0.01 -0.640625,-0.0293 h -0.0039 -0.0039 c -0.255951,-0.01 -0.53764,-0.0233 -0.84375,-0.043 -0.247095,-0.0159 -0.505428,-0.0381 -0.765625,-0.0606 l 0.125,-2.12695 c 0.177816,0.0144 0.356728,0.0285 0.507812,0.043 0.219475,0.02 0.411136,0.0349 0.572266,0.0449 0.160853,0.0101 0.286654,0.0156 0.382812,0.0156 0.252893,0 0.428281,-0.008 0.556641,-0.0332 l 0.0098,-0.002 0.0078,-0.002 c 0.154029,-0.0462 0.273792,-0.19194 0.304687,-0.34961 0.03663,-0.15018 0.05078,-0.34593 0.05078,-0.61718 z m 6.226562,0.33008 -2.880859,1.01563 0.0957,0.18945 c 0.264992,0.52017 0.525102,1.09604 0.78125,1.72656 l 0.002,0.002 c 0.266046,0.62077 0.513519,1.25762 0.740235,1.9082 v 0.002 c 0.236632,0.65074 0.443861,1.28594 0.621093,1.90625 l 0.05273,0.18945 0.185546,-0.0644 2.771485,-0.94922 -0.04883,-0.16992 c -0.259763,-0.90917 -0.583804,-1.85296 -0.972657,-2.83008 -0.389005,-0.9775 -0.81409,-1.90445 -1.273437,-2.7832 z m -10.558594,0.14649 -0.05078,0.18164 c -0.235922,0.86505 -0.536031,1.74645 -0.90039,2.64257 -0.354576,0.89629 -0.743232,1.73882 -1.166016,2.5254 l -0.09375,0.17382 0.179687,0.084 2.615235,1.1875 0.08203,-0.1543 c 0.469239,-0.88856 0.898125,-1.8272 1.28711,-2.81445 v -0.002 c 0.398689,-0.98693 0.718867,-1.92035 0.958984,-2.80078 l 0.04883,-0.17773 z m 10.369141,0.31445 c 0.425536,0.82567 0.827289,1.68855 1.191406,2.60351 0.361879,0.90934 0.656357,1.78034 0.904297,2.62696 l -2.25,0.77148 c -0.16754,-0.57079 -0.352214,-1.14963 -0.568359,-1.74414 v -0.002 c -0.228849,-0.65657 -0.477472,-1.29874 -0.746094,-1.92578 l -0.002,-0.004 c -0.230374,-0.5668 -0.466076,-1.07478 -0.705078,-1.55664 z m -10.121094,0.14453 2.246094,0.64063 c -0.230286,0.81676 -0.517141,1.67123 -0.886719,2.58593 v 0.002 c -0.362215,0.91947 -0.765498,1.78806 -1.197265,2.61914 l -2.115235,-0.96094 c 0.395041,-0.75064 0.765544,-1.53854 1.09961,-2.38281 v -0.002 c 0.344511,-0.84748 0.621523,-1.67917 0.853515,-2.50195 z"
           id="path902" />
      </g>
      <g
         id="path863"
         style="opacity:1;fill:#050506;fill-opacity:0.978558;stroke:none;stroke-opacity:1"
         transform="translate(0,-7.4083337)">
        <path
           style="color:#000000;font-style:normal;font-variant:normal;font-weight:900;font-stretch:normal;font-size:14.8765px;line-height:1.25;font-family:'M PLUS 1';-inkscape-font-specification:'M PLUS 1, Heavy';font-variant-ligatures:normal;font-variant-position:normal;font-variant-caps:normal;font-variant-numeric:normal;font-variant-alternates:normal;font-variant-east-asian:normal;font-feature-settings:normal;font-variation-settings:normal;text-indent:0;text-align:center;text-decoration:none;text-decoration-line:none;text-decoration-style:solid;text-decoration-color:#000000;letter-spacing:normal;word-spacing:normal;text-transform:none;writing-mode:lr-tb;direction:ltr;text-orientation:mixed;dominant-baseline:auto;baseline-shift:baseline;text-anchor:middle;white-space:normal;shape-padding:0;shape-margin:0;inline-size:0;clip-rule:nonzero;display:inline;overflow:visible;visibility:visible;isolation:auto;mix-blend-mode:normal;color-interpolation:sRGB;color-interpolation-filters:linearRGB;solid-color:#000000;solid-opacity:1;vector-effect:none;fill:#050506;fill-opacity:0.978558;fill-rule:nonzero;stroke:none;stroke-width:0.372;stroke-linecap:butt;stroke-linejoin:miter;stroke-miterlimit:4;stroke-dasharray:none;stroke-dashoffset:0;stroke-opacity:1;color-rendering:auto;image-rendering:auto;shape-rendering:auto;text-rendering:auto;enable-background:accumulate;stop-color:#000000;stop-opacity:1"
           d="m -41.972759,172.11733 v -2.82654 h 12.496261 v 2.82654 z"
           id="path906" />
        <path
           style="color:#000000;font-style:normal;font-variant:normal;font-weight:900;font-stretch:normal;font-size:14.8765px;line-height:1.25;font-family:'M PLUS 1';-inkscape-font-specification:'M PLUS 1, Heavy';font-variant-ligatures:normal;font-variant-position:normal;font-variant-caps:normal;font-variant-numeric:normal;font-variant-alternates:normal;font-variant-east-asian:normal;font-feature-settings:normal;font-variation-settings:normal;text-indent:0;text-align:center;text-decoration:none;text-decoration-line:none;text-decoration-style:solid;text-decoration-color:#000000;letter-spacing:normal;word-spacing:normal;text-transform:none;writing-mode:lr-tb;direction:ltr;text-orientation:mixed;dominant-baseline:auto;baseline-shift:baseline;text-anchor:middle;white-space:normal;shape-padding:0;shape-margin:0;inline-size:0;clip-rule:nonzero;display:inline;overflow:visible;visibility:visible;isolation:auto;mix-blend-mode:normal;color-interpolation:sRGB;color-interpolation-filters:linearRGB;solid-color:#000000;solid-opacity:1;vector-effect:none;fill:#050506;fill-opacity:0.978558;fill-rule:nonzero;stroke:none;stroke-linecap:butt;stroke-linejoin:miter;stroke-miterlimit:4;stroke-dasharray:none;stroke-dashoffset:0;stroke-opacity:1;color-rendering:auto;image-rendering:auto;shape-rendering:auto;text-rendering:auto;enable-background:accumulate;stop-color:#000000;stop-opacity:1"
           d="m -42.158203,169.10547 v 3.19726 h 0.185547 12.68164 v -3.19726 z m 0.371094,0.37109 h 12.125 v 2.45508 h -12.125 z"
           id="path908" />
      </g>
      <g
         id="path865"
         style="opacity:1;fill:#050506;fill-opacity:0.978558;stroke:none;stroke-opacity:1"
         transform="translate(0,-7.4083337)">
        <path
           style="color:#000000;font-style:normal;font-variant:normal;font-weight:900;font-stretch:normal;font-size:14.8765px;line-height:1.25;font-family:'M PLUS 1';-inkscape-font-specification:'M PLUS 1, Heavy';font-variant-ligatures:normal;font-variant-position:normal;font-variant-caps:normal;font-variant-numeric:normal;font-variant-alternates:normal;font-variant-east-asian:normal;font-feature-settings:normal;font-variation-settings:normal;text-indent:0;text-align:center;text-decoration:none;text-decoration-line:none;text-decoration-style:solid;text-decoration-color:#000000;letter-spacing:normal;word-spacing:normal;text-transform:none;writing-mode:lr-tb;direction:ltr;text-orientation:mixed;dominant-baseline:auto;baseline-shift:baseline;text-anchor:middle;white-space:normal;shape-padding:0;shape-margin:0;inline-size:0;clip-rule:nonzero;display:inline;overflow:visible;visibility:visible;isolation:auto;mix-blend-mode:normal;color-interpolation:sRGB;color-interpolation-filters:linearRGB;solid-color:#000000;solid-opacity:1;vector-effect:none;fill:#050506;fill-opacity:0.978558;fill-rule:nonzero;stroke:none;stroke-width:0.372;stroke-linecap:butt;stroke-linejoin:miter;stroke-miterlimit:4;stroke-dasharray:none;stroke-dashoffset:0;stroke-opacity:1;color-rendering:auto;image-rendering:auto;shape-rendering:auto;text-rendering:auto;enable-background:accumulate;stop-color:#000000;stop-opacity:1"
           d="m -18.601777,168.24944 c -0.238024,-0.52564 -0.495883,-1.02152 -0.773578,-1.48765 -0.277695,-0.46613 -0.590101,-0.94218 -0.937219,-1.42815 l 1.695921,-0.90746 c 0.347118,0.48596 0.659524,0.96697 0.937219,1.44302 0.277695,0.47605 0.540513,0.98185 0.788455,1.5174 z m 2.529005,-0.80333 c -0.228106,-0.52564 -0.476048,-1.02648 -0.743825,-1.50253 -0.257859,-0.47605 -0.55043,-0.96201 -0.877713,-1.4579 l 1.681044,-0.84796 c 0.337201,0.5058 0.634731,1.00168 0.89259,1.48765 0.267777,0.47605 0.515719,0.98681 0.743825,1.53228 z m 0.877714,6.08448 c -1.547156,-0.51571 -3.064559,-0.98184 -4.552209,-1.39839 -1.48765,-0.42646 -2.886041,-0.78845 -4.195173,-1.08598 l 0.743825,-2.67777 c 1.438061,0.31737 2.925711,0.69424 4.46295,1.13061 1.547156,0.42646 3.024888,0.87771 4.433197,1.35376 z m -10.562315,3.71913 V 164.1584 h 2.9753 v 13.09132 z"
           id="path912" />
        <path
           style="color:#000000;font-style:normal;font-variant:normal;font-weight:900;font-stretch:normal;font-size:14.8765px;line-height:1.25;font-family:'M PLUS 1';-inkscape-font-specification:'M PLUS 1, Heavy';font-variant-ligatures:normal;font-variant-position:normal;font-variant-caps:normal;font-variant-numeric:normal;font-variant-alternates:normal;font-variant-east-asian:normal;font-feature-settings:normal;font-variation-settings:normal;text-indent:0;text-align:center;text-decoration:none;text-decoration-line:none;text-decoration-style:solid;text-decoration-color:#000000;letter-spacing:normal;word-spacing:normal;text-transform:none;writing-mode:lr-tb;direction:ltr;text-orientation:mixed;dominant-baseline:auto;baseline-shift:baseline;text-anchor:middle;white-space:normal;shape-padding:0;shape-margin:0;inline-size:0;clip-rule:nonzero;display:inline;overflow:visible;visibility:visible;isolation:auto;mix-blend-mode:normal;color-interpolation:sRGB;color-interpolation-filters:linearRGB;solid-color:#000000;solid-opacity:1;vector-effect:none;fill:#050506;fill-opacity:0.978558;fill-rule:nonzero;stroke:none;stroke-linecap:butt;stroke-linejoin:miter;stroke-miterlimit:4;stroke-dasharray:none;stroke-dashoffset:0;stroke-opacity:1;color-rendering:auto;image-rendering:auto;shape-rendering:auto;text-rendering:auto;enable-background:accumulate;stop-color:#000000;stop-opacity:1"
           d="m -15.949219,163.39648 -2.015625,1.01758 0.115235,0.17383 c 0.32458,0.49179 0.614095,0.97251 0.86914,1.44336 l 0.002,0.002 v 0.002 c 0.2645,0.47022 0.508687,0.9643 0.734375,1.48437 l 0.07617,0.17578 0.173828,-0.0801 1.857422,-0.86523 -0.06836,-0.16406 c -0.230086,-0.55021 -0.481149,-1.06509 -0.751953,-1.54688 -0.261071,-0.49202 -0.562031,-0.99344 -0.902344,-1.5039 z m -0.132812,0.48633 c 0.294732,0.4507 0.566916,0.8967 0.796875,1.33008 l 0.002,0.002 v 0.002 c 0.235972,0.4195 0.450966,0.87605 0.65625,1.35156 l -1.359375,0.63281 c -0.208166,-0.46558 -0.426055,-0.91883 -0.666016,-1.3457 -0.228927,-0.42264 -0.496905,-0.8559 -0.779297,-1.29297 z m -9.861328,0.0898 v 13.46289 h 0.185547 3.162109 v -5.84766 c 0.912001,0.22681 1.804751,0.43825 2.796875,0.72266 h 0.002 c 1.48458,0.41568 2.998527,0.88167 4.542969,1.39648 l 0.175781,0.0586 0.05859,-0.17578 0.951172,-2.85351 -0.173829,-0.0606 c -1.411921,-0.47727 -2.893048,-0.92814 -4.443359,-1.35547 -1.346752,-0.3823 -2.638723,-0.69893 -3.910156,-0.99023 v -4.35742 z m 7.382812,0.21289 -2.027344,1.08398 0.123047,0.17188 c 0.344405,0.48216 0.654887,0.95474 0.929688,1.41601 0.27392,0.45979 0.528337,0.94905 0.763672,1.46875 l 0.08008,0.17578 0.173828,-0.0859 1.871094,-0.94532 -0.07617,-0.16211 c -0.250237,-0.54051 -0.516024,-1.05174 -0.796875,-1.5332 -0.280811,-0.48139 -0.595133,-0.96678 -0.945313,-1.45703 z m -7.011719,0.1582 h 2.603516 v 3.89258 c -0.06132,-0.0137 -0.12831,-0.0353 -0.189453,-0.0488 l -0.171875,-0.0391 -0.84375,3.03515 0.189453,0.0449 c 0.316657,0.072 0.688393,0.18216 1.015625,0.26171 v 5.57422 h -2.603516 z m 6.892578,0.32617 c 0.305594,0.43523 0.591212,0.86674 0.839844,1.29297 0.245625,0.42107 0.474759,0.87469 0.697266,1.34375 L -18.521484,168 c -0.217326,-0.46487 -0.444051,-0.91551 -0.69336,-1.33398 -0.245956,-0.41286 -0.530912,-0.83641 -0.830078,-1.26368 z m -4.388671,3.92383 c 0.03219,0.007 0.06737,0.0181 0.09961,0.0254 v 2.48633 c -0.239219,-0.0578 -0.510472,-0.1376 -0.744141,-0.19141 z m 0.472656,0.11914 c 1.239503,0.28551 2.496017,0.59225 3.808594,0.96484 h 0.002 c 1.481931,0.40849 2.892492,0.84304 4.246094,1.29688 l -0.773438,2.32422 c -1.487264,-0.4928 -2.950177,-0.94453 -4.382812,-1.34571 h -0.002 c -1.027337,-0.29448 -1.95547,-0.51674 -2.898437,-0.75 z"
           id="path914" />
      </g>
    </g>
  </g>
</svg>
